<svg xmlns="http://www.w3.org/2000/svg" xmlns:xlink="http://www.w3.org/1999/xlink" viewBox="0 0 333.82 314.52"><defs><style>.cls-1{fill:#069999;}.cls-2{fill:#9ccdcb;}.cls-3{fill:url(#Sfumatura_senza_nome_9);}.cls-4{fill:#007672;}.cls-5{fill:#fdfdfd;}.cls-6,.cls-7{fill:#c7e5e8;}.cls-7{stroke:#069999;stroke-miterlimit:10;}</style><linearGradient id="Sfumatura_senza_nome_9" x1="438.97" y1="299.97" x2="438.97" y2="96.76" gradientTransform="matrix(-1, 0, 0, 1, 566.5, 0)" gradientUnits="userSpaceOnUse"><stop offset="0" stop-color="#fff"/><stop offset="0.64" stop-color="#069999"/></linearGradient></defs><g id="Livello_1" data-name="Livello 1"><path class="cls-1" d="M156.89,280.74c3,4.51-4.25,10.9-1.26,15.84,2.25,3.72,8.6,3.81,18.54,4,11.36.17,12.42-1.79,18.18-.18,8.73,2.43,14.91,9.31,15.12,13.86,0,.53.09,2.09-.86,2.83-1.56,1.23-4.89-.54-5.22-.72-1.73-.94-2.63-2.15-2.92-1.93s.52,1.13.76,2.83a5.68,5.68,0,0,1-.94,4.37,3.9,3.9,0,0,1-1.4,1.08c-2.53,1.05-6.24-1.84-9.85-4.73-2.43-1.94-3.19-2.88-5.31-3.73-1.81-.73-4.43-1.3-4.86-.54s2.61,2.49,4.9,7c.67,1.32,2.41,4.86,1,7.56a2.89,2.89,0,0,1-1.31,1.39c-1.43.66-3.2-.46-4.27-1.12-3.54-2.16-6.22-3.8-9-4.59-.69-.2-3.4-.37-8.82-.72H156c-1.84,0-2.23,0-2.46.3-.53.69.65,1.76,1.2,4.32.08.37,0,.26.24,4.2.13,2.49.16,2.83-.06,3.42-.41,1.09-1.48,2.52-2.88,2.64-1.21.1-2.17-.82-3.9-2.46a18.86,18.86,0,0,1-1.62-1.74,43.61,43.61,0,0,0-4.92-5.1c-3.8-3.1-7.28.66-13.5-2-3.47-1.47-2.78-2.81-6.84-4.5a20.7,20.7,0,0,0-10.08-1.44,18.12,18.12,0,0,0-8.28,2.7c-2.26,1.47-3,2.81-4.14,2.52-1.58-.41-2.68-3.68-2-6.3,1-3.66,5.29-5.39,8.46-6.66,7-2.81,9.79-.95,12.24-3.78,2.69-3.1,2-8.4,1.8-9.72-.55-4.06-2.24-4.9-1.62-6.84,1.35-4.24,11.33-6.23,13.68-3.24,1.53,1.95-1.29,4.61.18,9.72.38,1.32,1.23,4.26,3.78,5.4s6.12-.07,7.92-2.16c2.48-2.9,1.6-7.21.9-10.62-1.45-7.07-4.65-8.86-3.6-11.16C142.25,276.9,153.81,276.12,156.89,280.74Z" transform="translate(-15.03 -23.59)"/><path class="cls-2" d="M201.11,126.24c7.12-8.78,11.87-14,24-27.48,20.75-23,22.72-25.36,28.26-29.7,7.94-6.23,21.79-17.09,28.38-12.9,5.6,3.56,3.36,16.35,2.58,20.82-4.95,28.3-27.85,48.44-28,48.3s6.29-9.74,16.86-16.62c2.35-1.54,15.73-10.25,21.06-5.94,4.51,3.65,1.57,15.27-2.16,22.68-7.77,15.42-24.33,23.27-24.24,23.4s7.34-6.33,17.58-7.92c3.16-.49,8.25-1.28,10.62,1.44,3.79,4.36-2,14.71-2.7,15.84-7.93,13.75-24.43,19.63-24.54,19.44s13.89-10.16,18.24-6.72c1.24,1,1.45,2.85,1.62,4.38.52,4.68-2.07,8.37-2.88,9.54-6.77,9.66-23.83,11.5-23.7,12,.06.25,4.05-1.15,8.62.15,1.11.32,5,1.43,5.78,4.17.64,2.32-1.29,4.7-2,5.64-3.78,4.67-21.59,16.65-41.16,13.08-33.09-6-55.48-53.65-44.64-77.28C189.61,140.41,193.45,135.68,201.11,126.24Z" transform="translate(-15.03 -23.59)"/><path class="cls-3" d="M191.09,122.7c-1.94-3.65-3.91-5.9-7.74-9.54a71,71,0,0,0-13.68-10.8c-13.4-7.66-34-7.55-50.64.84-4.34,2.18-14.48,7.45-21.36,18.72-7.49,12.26-7.46,25.65-7.44,34.8,0,17.83,5.06,24.23-.24,31.68-3.31,4.64-5.63,2.66-15.36,10.8-8.71,7.29-10,11.5-15.12,12-4.84.47-7.18-2.92-13.75-6.56-8.52-4.73-23.23-9.36-27-5.44-8.92,9.13,38.93,67.29,61.2,81.12A107.86,107.86,0,0,0,94.79,288c6.06,2.44,8.26,2.54,13.87,4,4.94,1.3,6,1,7.49,2.23,1.87,1.57,1.11,2.48,2.85,3.95,3.8,3.22,10.4,1.38,12.51-.11l.42-.32a8.39,8.39,0,0,0,2.58-4.12c1.17-3.74,4.85-9.4,6.41-9,.31.07.6.54,1.18,1.49a10.28,10.28,0,0,1,1,2.16c.81,2.31.58,2.76.94,3.24,2.37,3.18,14.59-1.8,18.62-5.38a26.11,26.11,0,0,0,2.34-2.33c1.84-2.14,2.16-3.52,4.92-5.41,4.79-3.29,9.17-1.84,14.16-3.6a67.45,67.45,0,0,0,18.72-10.44c15.17-11.42,31.68-23.86,34.32-43.56s-9.94-42.21-25-53.28c-4.43-3.27-13.88-9.07-12.78-11.88,1-2.6,10.06,0,12.6-4.5a5.86,5.86,0,0,0-.72-6.48c-1.6-1.64-3.67-.66-6.84-1.62-3.57-1.08-5.65-3.74-7.38-5.94C193,132,194.51,129.14,191.09,122.7Z" transform="translate(-15.03 -23.59)"/><path class="cls-4" d="M187.43,131.52a10.33,10.33,0,0,0-.28,3.3c.47,2.54,2.72,5.18,5.2,5.34,3.47.21,6.48-4.51,6.48-8.52s-3.27-8.43-6.48-8.52a3.52,3.52,0,0,0-1.74.36C188.64,124.46,188.15,127.14,187.43,131.52Z" transform="translate(-15.03 -23.59)"/><ellipse class="cls-4" cx="157.88" cy="116.33" rx="12.96" ry="14.4"/><path d="M191.75,171.84c-5.79,0-10.26-4.76-12.36-7-1.83-2-4.21-4.54-5.16-8.58a17.7,17.7,0,0,1,7.2-18.24c5.7-3.8,12-2.66,13.44-2.4a28.11,28.11,0,0,1,5.52,1.92,77.9,77.9,0,0,1,17.79,11.19,5.27,5.27,0,0,1,2,2.82c.71,2.93-2.13,5.94-2.94,6.81a16.28,16.28,0,0,1-4.32,3.15c-5.8,3.25-9.63,5-9.63,5C192.93,171.39,193.48,171.82,191.75,171.84Z" transform="translate(-15.03 -23.59)"/><ellipse class="cls-5" cx="134.84" cy="144.68" rx="16.02" ry="22.59" transform="translate(-51.6 22.43) rotate(-17.09)"/><ellipse cx="134.84" cy="144.68" rx="5.22" ry="10.14" transform="translate(-51.6 22.43) rotate(-17.09)"/><path class="cls-2" d="M82.92,193.41a54.33,54.33,0,0,1,23.75-3.93c23.9,1.94,51.64,32.2,46.44,61.92-3.25,18.52-18.05,29.76-20.16,31.32a55.29,55.29,0,0,1-23.3,9.56C62.8,299,24.61,228.82,17,208.92c-1.66-4.34-3.15-9.68-.72-12.24,4.09-4.32,18.8-.13,29.16,6.84,6.51,4.38,8.93,8.26,13.32,7.56,3.87-.62,4.75-4.08,10.8-9.36A59.09,59.09,0,0,1,82.92,193.41Z" transform="translate(-15.03 -23.59)"/><path d="M63.72,207.76a84.15,84.15,0,0,0,5.63,42.8,68.36,68.36,0,0,0,44.72,40.86,55.57,55.57,0,0,0,9-3.09,56.57,56.57,0,0,0,9.87-5.61,126.82,126.82,0,0,1-50-89.31A38.44,38.44,0,0,0,71,199.92,37.87,37.87,0,0,0,63.72,207.76Z" transform="translate(-15.03 -23.59)"/></g><g id="Livello_2" data-name="Livello 2"><path class="cls-6" d="M261,72.13A5,5,0,0,0,259.69,74a5.15,5.15,0,0,0,.84,5.42l25,28.9a5.18,5.18,0,0,0,7.3.53l54.23-46.92a5.18,5.18,0,0,0,.53-7.3l-25-28.9a5.19,5.19,0,0,0-5.25-1.62h0a5.12,5.12,0,0,0-2,1Z" transform="translate(-15.03 -23.59)"/><path class="cls-7" d="M259.69,74a1,1,0,0,0,1.13.71l41.48-9a1,1,0,0,0,.7-.6l14.88-39.76a1,1,0,0,0-.54-1.23h0" transform="translate(-15.03 -23.59)"/></g></svg>