<svg xmlns="http://www.w3.org/2000/svg" viewBox="0 0 23.92 27.32"><defs><style>.cls-1{fill:#fff;}.cls-2{fill:#099;}</style></defs><g id="Livello_1" data-name="Livello 1"><path class="cls-1" d="M23.57,14.06V29.75A1.61,1.61,0,0,1,22,31.36H5a1.61,1.61,0,0,1-1.61-1.61V6.11A1.61,1.61,0,0,1,5,4.5H13.5" transform="translate(-0.08 -4.04)"/><path class="cls-1" d="M14.52,14.35a1,1,0,0,1-1-1V5.15a1.26,1.26,0,0,1,0-.33l9.8,9.3a1,1,0,0,1-.65.23Z" transform="translate(-0.08 -4.04)"/><path class="cls-2" d="M14,5.94l8.34,7.91H14.52a.55.55,0,0,1-.55-.54V5.94M13.43,4A1.6,1.6,0,0,0,13,5.15v8.16a1.54,1.54,0,0,0,1.55,1.54h8.15A1.51,1.51,0,0,0,24,14.08L13.43,4Z" transform="translate(-0.08 -4.04)"/><path class="cls-2" d="M6.79,23.18a3.43,3.43,0,1,1,3.43-3.43A3.43,3.43,0,0,1,6.79,23.18Z" transform="translate(-0.08 -4.04)"/><path class="cls-1" d="M6.79,16.45a3.3,3.3,0,1,1-3.3,3.3,3.3,3.3,0,0,1,3.3-3.3m0-.25a3.55,3.55,0,1,0,3.55,3.55A3.55,3.55,0,0,0,6.79,16.2Z" transform="translate(-0.08 -4.04)"/><path class="cls-2" d="M.23,29.67a6.83,6.83,0,0,1,6.56-5.91,6.83,6.83,0,0,1,6.56,5.91Z" transform="translate(-0.08 -4.04)"/><path class="cls-1" d="M6.79,23.88a6.7,6.7,0,0,1,6.41,5.66H.38a6.7,6.7,0,0,1,6.41-5.66m0-.25A7,7,0,0,0,.08,29.79H13.5a7,7,0,0,0-6.71-6.16Z" transform="translate(-0.08 -4.04)"/></g><g id="Livello_2" data-name="Livello 2"><rect class="cls-2" x="11.92" y="12.7" width="8.12" height="1.8"/><rect class="cls-2" x="11.92" y="15.65" width="8.12" height="1.98"/><rect class="cls-2" x="11.92" y="18.78" width="8.12" height="1.98"/></g></svg>