<svg xmlns="http://www.w3.org/2000/svg" viewBox="0 0 23.64 31.2"><defs><style>.cls-1,.cls-2{fill:#fff;}.cls-1,.cls-4,.cls-5,.cls-6,.cls-7{stroke:#099;stroke-miterlimit:10;}.cls-3,.cls-4,.cls-5,.cls-6,.cls-7{fill:#099;}.cls-4{stroke-width:0.88px;}.cls-5{stroke-width:0.88px;}.cls-6{stroke-width:0.94px;}.cls-7{stroke-width:0.82px;}</style></defs><g id="Livello_2" data-name="Livello 2"><path class="cls-1" d="M22.76,12.16V29.8A1.81,1.81,0,0,1,21,31.61h-19A1.81,1.81,0,0,1,.12,29.8V3.23A1.81,1.81,0,0,1,1.93,1.42h9.51" transform="translate(0.38 -0.9)"/><path class="cls-2" d="M12.58,12.53a1.21,1.21,0,0,1-1.21-1.21V2.15a1.22,1.22,0,0,1,.08-.43L22.53,12.24a1.22,1.22,0,0,1-.79.29Z" transform="translate(0.38 -0.9)"/><path class="cls-3" d="M11.9,2.87,21.52,12H12.58a.68.68,0,0,1-.68-.68V2.87m-.54-2a1.76,1.76,0,0,0-.52,1.25v9.17a1.74,1.74,0,0,0,1.74,1.73h9.16a1.69,1.69,0,0,0,1.5-.87L11.36.9Z" transform="translate(0.38 -0.9)"/></g><g id="Livello_3" data-name="Livello 3"><rect class="cls-4" x="4.11" y="5.34" width="6.5" height="1.14"/><rect class="cls-5" x="4.11" y="9.54" width="6.5" height="1.14"/><rect class="cls-6" x="4.11" y="16.74" width="14.06" height="1.14"/><rect class="cls-7" x="4.11" y="20.61" width="14.06" height="6.09"/></g></svg>