<svg id="Livello_2" data-name="Livello 2" xmlns="http://www.w3.org/2000/svg" viewBox="0 0 13.56 20"><defs><style>.cls-1,.cls-2{fill:#fff;}.cls-2{stroke:#fff;stroke-linecap:round;stroke-linejoin:round;stroke-width:0.25px;}</style></defs><path class="cls-1" d="M4.8,19.88a1.11,1.11,0,0,1-1.11-1.11V1.23A1.11,1.11,0,0,1,4.8.13H15.9A1.1,1.1,0,0,1,17,1.23V18.77a1.11,1.11,0,0,1-1.1,1.11ZM14.1,15A1.93,1.93,0,1,0,16,16.93,1.93,1.93,0,0,0,14.1,15ZM4.62,7.13a.12.12,0,0,0-.12.13v6.11a.12.12,0,0,0,.12.13H14a.13.13,0,0,0,.13-.13V7.26A.13.13,0,0,0,14,7.13ZM11,4.4a.12.12,0,0,0-.12.12V6.09a.12.12,0,0,0,.12.12h3a.12.12,0,0,0,.13-.12V4.52A.12.12,0,0,0,14,4.4Zm-6.33,0a.12.12,0,0,0-.12.12V6.09a.12.12,0,0,0,.12.12h5.73a.12.12,0,0,0,.13-.12V4.52a.12.12,0,0,0-.13-.12Zm0-2.71a.12.12,0,0,0-.12.13V3.53a.12.12,0,0,0,.12.12H9.45a.12.12,0,0,0,.13-.12V1.82a.13.13,0,0,0-.13-.13Z" transform="translate(-3.57)"/><path class="cls-1" d="M15.9.25a1,1,0,0,1,1,1V18.77a1,1,0,0,1-1,1H4.8a1,1,0,0,1-1-1V1.23a1,1,0,0,1,1-1H15.9M4.62,3.78H9.45a.25.25,0,0,0,.25-.25V1.82a.25.25,0,0,0-.25-.25H4.62a.25.25,0,0,0-.25.25V3.53a.25.25,0,0,0,.25.25M11,6.34h3a.25.25,0,0,0,.25-.25V4.52A.25.25,0,0,0,14,4.27H11a.25.25,0,0,0-.25.25V6.09a.25.25,0,0,0,.25.25m-6.33,0h5.73a.25.25,0,0,0,.25-.25V4.52a.25.25,0,0,0-.25-.25H4.62a.25.25,0,0,0-.25.25V6.09a.25.25,0,0,0,.25.25m0,7.28H14a.25.25,0,0,0,.25-.25V7.26A.25.25,0,0,0,14,7H4.62a.25.25,0,0,0-.25.25v6.11a.25.25,0,0,0,.25.25M14.1,19a2.06,2.06,0,1,0-2-2.05,2.05,2.05,0,0,0,2,2.05M15.9,0H4.8A1.23,1.23,0,0,0,3.57,1.23V18.77A1.23,1.23,0,0,0,4.8,20H15.9a1.23,1.23,0,0,0,1.23-1.23V1.23A1.23,1.23,0,0,0,15.9,0ZM4.62,3.53V1.82H9.45V3.53ZM11,6.09V4.52h3V6.09Zm-6.33,0V4.52h5.73V6.09Zm0,7.28V7.26H14v6.11Zm9.48,5.36a1.81,1.81,0,1,1,1.8-1.8,1.81,1.81,0,0,1-1.8,1.8Z" transform="translate(-3.57)"/><polyline class="cls-2" points="9.87 16.99 10.37 17.52 11.43 16.33"/></svg>