<svg xmlns="http://www.w3.org/2000/svg" viewBox="0 0 216.17 302.79"><defs><style>.cls-1,.cls-2{fill:#fff;stroke:#fff;stroke-miterlimit:10;fill-rule:evenodd;}.cls-1{stroke-width:0.79px;}.cls-2{stroke-width:1.17px;}</style></defs><g id="Livello_2" data-name="Livello 2"><g id="Livello_2-2" data-name="Livello 2"><path class="cls-1" d="M214.31,102.77,113.4,1.86l-.18-.18L113,1.39H18.18A17.78,17.78,0,0,0,.4,19.17V284.61a17.78,17.78,0,0,0,17.78,17.78H196.62a17.78,17.78,0,0,0,17.78-17.78V102.86ZM15.4,27.39h85v16h-85Zm81,34v16h-35v-16Zm-81,0h35v16h-35Zm0,85h94v16h-94Zm0,56h94v16h-94Zm94,73h-94v-16h94Zm44,0h-37v-16h37Zm29-28H15.4v-16h167Zm-66-29v-16h37v16Zm66-28H15.4v-16h167Zm-66-28v-16h37v16Zm66-28H15.4v-16h167Z"/><path class="cls-2" d="M130.77,103.28l84-.51L113.4,1.4l-.51,84A17.77,17.77,0,0,0,130.77,103.28Z"/></g></g></svg>