<svg xmlns="http://www.w3.org/2000/svg" viewBox="0 0 22.02 22.19"><defs><style>.cls-1{fill:#fff;}</style></defs><g id="Livello_2" data-name="Livello 2"><g id="Livello_2-2" data-name="Livello 2"><path class="cls-1" d="M9.41.65.7,9.15a2.29,2.29,0,0,0,1.6,3.94H19.72a2.3,2.3,0,0,0,1.6-3.94L12.61.65A2.29,2.29,0,0,0,9.41.65Z"/><path class="cls-1" d="M19.56,11.94v8.39a1.86,1.86,0,0,1-1.86,1.86H14.16a.9.9,0,0,1-.9-.91V16.09a.9.9,0,0,0-.9-.9H9.66a.9.9,0,0,0-.9.9v5.19a.91.91,0,0,1-.9.91H4.12a1.86,1.86,0,0,1-1.86-1.86V11.94a1.85,1.85,0,0,1,1.86-1.85H17.7A1.85,1.85,0,0,1,19.56,11.94Z"/></g></g></svg>