<svg xmlns="http://www.w3.org/2000/svg" viewBox="0 0 215.88 257.53"><defs><style>.cls-1,.cls-2,.cls-3{fill:#fff;stroke:#fff;stroke-miterlimit:10;}.cls-2{stroke-width:1.47px;}.cls-3{stroke-width:1.23px;}</style></defs><g id="Livello_2" data-name="Livello 2"><g id="Livello_2-2" data-name="Livello 2"><path class="cls-1" d="M.5,15.85V217.33a15.35,15.35,0,0,0,15.35,15.35H162.73a15.35,15.35,0,0,0,15.36-15.35V15.85A15.35,15.35,0,0,0,162.73.5H15.85A15.35,15.35,0,0,0,.5,15.85ZM81.83,51.07h56.89V63.14H81.83ZM15.73,23.48h56.9V35.55H15.73Zm0,27.59h56.9V63.14H15.73Zm0,27.59h123V90.73h-123Z"/><path class="cls-2" d="M143.62,116.59a57.21,57.21,0,1,0,57.21,57.2A57.2,57.2,0,0,0,143.62,116.59Zm0,105.23a48,48,0,1,1,48-48A48,48,0,0,1,143.62,221.82Z"/><polyline class="cls-3" points="184.63 213.67 215.01 249.17 206.26 256.66 175.82 221.08"/></g></g></svg>