<svg xmlns="http://www.w3.org/2000/svg" viewBox="0 0 22.82 30.12"><defs><style>.cls-1,.cls-2{fill:#fff;}.cls-1,.cls-4{stroke:#099;stroke-miterlimit:10;}.cls-1{stroke-width:0.97px;}.cls-3,.cls-4{fill:#099;}.cls-4{stroke-width:0.85px;}.cls-5{fill:none;}</style></defs><g id="Livello_1" data-name="Livello 1"><path class="cls-1" d="M22.24,13V30a1.75,1.75,0,0,1-1.75,1.75H2.13A1.75,1.75,0,0,1,.38,30V4.34A1.75,1.75,0,0,1,2.13,2.59h9.18" transform="translate(0.1 -2.09)"/><path class="cls-2" d="M12.41,13.31a1.17,1.17,0,0,1-1.17-1.17V3.29a1.15,1.15,0,0,1,.08-.41L22,13a1.17,1.17,0,0,1-.76.28Z" transform="translate(0.1 -2.09)"/><path class="cls-3" d="M11.75,4,21,12.81H12.41a.67.67,0,0,1-.66-.67V4m-.52-1.9a1.75,1.75,0,0,0-.5,1.21v8.84a1.68,1.68,0,0,0,1.68,1.68h8.85A1.62,1.62,0,0,0,22.7,13L11.23,2.09Z" transform="translate(0.1 -2.09)"/><rect class="cls-4" x="4.04" y="8.99" width="6.27" height="1.1"/><rect class="cls-4" x="4.04" y="5.41" width="6.27" height="1.1"/></g><g id="Livello_2" data-name="Livello 2"><polygon class="cls-3" points="12.88 21.7 15.53 27.39 12.96 25.12 13.05 28.55 10.39 22.86 12.88 21.7"/><polygon class="cls-3" points="11.41 22.86 8.76 28.55 8.84 25.12 6.27 27.39 8.92 21.7 11.41 22.86"/><path class="cls-5" d="M8.56,30.5" transform="translate(0.1 -2.09)"/><path class="cls-3" d="M16.08,21c0,.34-.64.61-.7.93s.42.81.29,1.12-.81.31-1,.58.07.92-.16,1.15-.87,0-1.14.16-.28.87-.59,1-.79-.36-1.12-.29-.59.69-.93.69-.6-.63-.92-.69S9,26.1,8.69,26s-.32-.82-.59-1-.91.07-1.14-.16,0-.87-.17-1.15-.87-.28-1-.58.35-.8.29-1.13-.7-.58-.7-.92.63-.61.7-.93S5.67,19.3,5.8,19s.81-.31,1-.58-.07-.92.17-1.15.87,0,1.14-.16.28-.87.59-1,.79.36,1.12.29.59-.69.92-.69.61.63.93.69.82-.41,1.12-.29.31.82.59,1,.91-.07,1.14.16,0,.87.16,1.15.87.28,1,.58-.35.8-.29,1.13S16.08,20.7,16.08,21Z" transform="translate(0.1 -2.09)"/><circle class="cls-2" cx="10.84" cy="18.95" r="3.94"/></g></svg>