<svg xmlns="http://www.w3.org/2000/svg" viewBox="0 0 22.82 30.92"><defs><style>.cls-1,.cls-2{fill:#fff;}.cls-2{stroke:#fff;stroke-miterlimit:10;}</style></defs><g id="Livello_2" data-name="Livello 2"><path class="cls-1" d="M21.61.51H2.47A1.84,1.84,0,0,0,.63,2.35V29.59a1.84,1.84,0,0,0,1.84,1.84H21.61a1.84,1.84,0,0,0,1.84-1.84V2.35A1.84,1.84,0,0,0,21.61.51ZM2.8,3.57H12v1.6H2.8ZM18.17,29.62a2.76,2.76,0,1,1,2.75-2.76A2.77,2.77,0,0,1,18.17,29.62Zm3-9H2.8V7.65H21.2Z" transform="translate(-0.63 -0.51)"/><line class="cls-2" x1="16.09" y1="26.05" x2="17.08" y2="27.31"/><line class="cls-2" x1="18.98" y1="25.72" x2="17.08" y2="27.31"/></g></svg>