<svg id="Livello_1" data-name="Livello 1" xmlns="http://www.w3.org/2000/svg" viewBox="0 0 23.44 29.82"><defs><style>.cls-1,.cls-2{fill:#fff;}.cls-1{stroke:#099;stroke-miterlimit:10;}.cls-3{fill:#099;}</style></defs><path class="cls-1" d="M20.28,14.27V29.15a1.54,1.54,0,0,1-1.53,1.53H2.7a1.53,1.53,0,0,1-1.53-1.53V6.73A1.52,1.52,0,0,1,2.7,5.2h8" transform="translate(-0.67 -1.36)"/><path class="cls-2" d="M11.69,14.57a1,1,0,0,1-1-1V5.81a1.15,1.15,0,0,1,.07-.36l9.35,8.88a1,1,0,0,1-.66.24Z" transform="translate(-0.67 -1.36)"/><path class="cls-3" d="M11.11,6.42l8.12,7.71H11.69a.58.58,0,0,1-.58-.58V6.42m-.46-1.66a1.53,1.53,0,0,0-.43,1v7.74A1.47,1.47,0,0,0,11.69,15h7.73a1.42,1.42,0,0,0,1.26-.74l-10-9.52Z" transform="translate(-0.67 -1.36)"/><path class="cls-1" d="M22,12.62V27.5A1.53,1.53,0,0,1,20.42,29h-16A1.54,1.54,0,0,1,2.84,27.5V5.08A1.53,1.53,0,0,1,4.37,3.55h8" transform="translate(-0.67 -1.36)"/><path class="cls-2" d="M13.36,12.93a1,1,0,0,1-1-1V4.17a.94.94,0,0,1,.07-.37l9.35,8.88a1,1,0,0,1-.67.25Z" transform="translate(-0.67 -1.36)"/><path class="cls-3" d="M12.78,4.77l8.13,7.71H13.36a.58.58,0,0,1-.58-.58V4.77m-.45-1.65a1.46,1.46,0,0,0-.44,1V11.9a1.47,1.47,0,0,0,1.47,1.47h7.73a1.42,1.42,0,0,0,1.27-.74l-10-9.51Z" transform="translate(-0.67 -1.36)"/><path class="cls-1" d="M23.6,10.93V25.81a1.53,1.53,0,0,1-1.52,1.53H6a1.54,1.54,0,0,1-1.53-1.53V3.39A1.54,1.54,0,0,1,6,1.86h8" transform="translate(-0.67 -1.36)"/><path class="cls-2" d="M15,11.24a1,1,0,0,1-1-1V2.48a1.16,1.16,0,0,1,.07-.37L23.41,11a1,1,0,0,1-.66.25Z" transform="translate(-0.67 -1.36)"/><path class="cls-3" d="M14.44,3.08l8.12,7.71H15a.58.58,0,0,1-.57-.58V3.08M14,1.43a1.5,1.5,0,0,0-.43,1.05v7.73A1.47,1.47,0,0,0,15,11.68h7.74A1.42,1.42,0,0,0,24,10.94L14,1.43Z" transform="translate(-0.67 -1.36)"/></svg>